# xmcd
#
# Track frame offsets: 
#        150
#        14657
#        25365
#        37490
#        52937
#        62267
#        74730
#        86605
#        98057
#        110615
#
# Disc length: 1672 seconds
#
# Revision: 2
# Processed by: cddbd v1.5.2PL0 Copyright (c) Steve Scherf et al.
# Submitted via: ExactAudioCopy v0.99pb4
#
DISCID=8a06860a
DTITLE=Randy Travis - An Old Time Christmas
DYEAR=1989
DGENRE=Country
TTITLE0=Old Time Christmas
TTITLE1=Winter Wonderland
TTITLE2=Meet Me Under The Mistletoe
TTITLE3=White Christmas Makes Me Blue
TTITLE4=Santa Clause Is Coming To Town
TTITLE5=God Rest Y Merry Gentlemen
TTITLE6=Pretty Paper
TTITLE7=Oh, What A Silent Night
TTITLE8=How Do I Wrap My Heart For Christmas
TTITLE9=The Christmas Song
EXTD=
EXTT0=
EXTT1=
EXTT2=
EXTT3=
EXTT4=
EXTT5=
EXTT6=
EXTT7=
EXTT8=
EXTT9=
PLAYORDER=
